<svg width="12" height="13" viewBox="0 0 12 13" fill="none" xmlns="http://www.w3.org/2000/svg">
<path fill-rule="evenodd" clip-rule="evenodd" d="M2.1502 0.407227C1.90167 0.407227 1.7002 0.608698 1.7002 0.857227C1.7002 1.10576 1.90167 1.30723 2.1502 1.30723H9.80575C10.0543 1.30723 10.2558 1.10576 10.2558 0.857227C10.2558 0.608698 10.0543 0.407227 9.80575 0.407227H2.1502ZM9.9125 2.25708C10.7893 2.25708 11.5 2.96783 11.5 3.84458V10.0071C11.5 10.8907 10.7834 11.6071 9.89975 11.6071H8.74999H3.25H2.10025C1.21659 11.6071 0.500017 10.8907 0.500017 10.0071L0.500014 4.10709C0.500014 4.10709 0.500002 7.8064 0.5 3.86121C0.5 2.97755 1.21634 2.25708 2.1 2.25708H6H9.9125ZM2.51612 9.69692H9.68411L8.11611 8.09465L7.22011 9.01023L5.20411 6.95017L2.51612 9.69692ZM9.23609 5.34858C9.23609 5.98949 8.74329 6.49306 8.1161 6.49306C7.4889 6.49306 6.9961 5.98949 6.9961 5.34858C6.9961 4.70767 7.4889 4.2041 8.1161 4.2041C8.74329 4.2041 9.23609 4.70767 9.23609 5.34858Z" fill="#212134"/>
</svg>
