<svg width="12" height="13" viewBox="0 0 12 13" fill="none" xmlns="http://www.w3.org/2000/svg">
<path fill-rule="evenodd" clip-rule="evenodd" d="M11.8539 0.255825C11.7602 0.162057 11.633 0.109378 11.5004 0.109378L10.5004 0.109378C9.57681 0.108546 8.66235 0.291694 7.81036 0.64813C7.71932 0.686107 7.64155 0.750163 7.58683 0.832238C7.53211 0.914313 7.5029 1.01074 7.50286 1.10938V2.56813C7.50339 2.57207 7.50256 2.57608 7.50052 2.57948C7.49848 2.58289 7.49533 2.5855 7.49161 2.58688L6.4916 1.85188C6.39933 1.78261 6.28595 1.74738 6.17067 1.75216C6.05539 1.75695 5.94531 1.80145 5.8591 1.87813C5.11866 2.53396 4.52561 3.33925 4.11903 4.24095C3.71246 5.14265 3.5016 6.12028 3.50035 7.1094V7.9019L2.14659 9.25565C2.05277 9.34947 2.00006 9.47672 2.00006 9.6094C2.00006 9.74208 2.05277 9.86933 2.14659 9.96315C2.24041 10.057 2.36766 10.1097 2.50034 10.1097C2.63303 10.1097 2.76027 10.057 2.85409 9.96315L4.20785 8.6094H5.00035C6.85626 8.60741 8.63559 7.86928 9.94792 6.55695C11.2602 5.24462 11.9984 3.46529 12.0004 1.60938V0.60938C12.0004 0.476771 11.9477 0.349593 11.8539 0.255825ZM9.00002 12.1075H1.5C1.10218 12.1075 0.720646 11.9494 0.439341 11.6681C0.158036 11.3868 0 11.0053 0 10.6075V3.10746C0 2.70963 0.158036 2.3281 0.439341 2.04679C0.720646 1.76549 1.10218 1.60745 1.5 1.60745H3.00001C3.13262 1.60745 3.25979 1.66013 3.35356 1.7539C3.44733 1.84767 3.50001 1.97485 3.50001 2.10745C3.50001 2.24006 3.44733 2.36724 3.35356 2.46101C3.25979 2.55478 3.13262 2.60745 3.00001 2.60745H1.5C1.36739 2.60745 1.24022 2.66013 1.14645 2.7539C1.05268 2.84767 1 2.97485 1 3.10746V10.6075C1 10.7401 1.05268 10.8673 1.14645 10.961C1.24022 11.0548 1.36739 11.1075 1.5 11.1075H9.00002C9.13263 11.1075 9.25981 11.0548 9.35357 10.961C9.44734 10.8673 9.50002 10.7401 9.50002 10.6075V9.10747C9.50002 8.97486 9.5527 8.84768 9.64647 8.75391C9.74024 8.66015 9.86741 8.60747 10 8.60747C10.1326 8.60747 10.2598 8.66015 10.3536 8.75391C10.4473 8.84768 10.5 8.97486 10.5 9.10747V10.6075C10.5 11.0053 10.342 11.3868 10.0607 11.6681C9.77938 11.9494 9.39785 12.1075 9.00002 12.1075Z" fill="#212134"/>
</svg>
