<svg width="16" height="17" viewBox="0 0 16 17" fill="none" xmlns="http://www.w3.org/2000/svg">
<path fill-rule="evenodd" clip-rule="evenodd" d="M0.5 14C0.5 13.7239 0.723858 13.5 1 13.5H15C15.2761 13.5 15.5 13.7239 15.5 14C15.5 14.2761 15.2761 14.5 15 14.5H1C0.723858 14.5 0.5 14.2761 0.5 14Z" fill="#3B3A39"/>
<path fill-rule="evenodd" clip-rule="evenodd" d="M1.79289 2.29289C1.98043 2.10536 2.23478 2 2.5 2H8.5C8.76522 2 9.01957 2.10536 9.20711 2.29289C9.39464 2.48043 9.5 2.73478 9.5 3V14C9.5 14.2761 9.27614 14.5 9 14.5C8.72386 14.5 8.5 14.2761 8.5 14L8.5 3H2.5L2.5 14C2.5 14.2761 2.27614 14.5 2 14.5C1.72386 14.5 1.5 14.2761 1.5 14V3C1.5 2.73478 1.60536 2.48043 1.79289 2.29289Z" fill="#3B3A39"/>
<path fill-rule="evenodd" clip-rule="evenodd" d="M8.5 6.5C8.5 6.22386 8.72386 6 9 6H13.5C13.7652 6 14.0196 6.10536 14.2071 6.29289C14.3946 6.48043 14.5 6.73478 14.5 7V14C14.5 14.2761 14.2761 14.5 14 14.5C13.7239 14.5 13.5 14.2761 13.5 14L13.5 7L9 7C8.72386 7 8.5 6.77614 8.5 6.5Z" fill="black"/>
<path fill-rule="evenodd" clip-rule="evenodd" d="M3.5 5C3.5 4.72386 3.72386 4.5 4 4.5H6C6.27614 4.5 6.5 4.72386 6.5 5C6.5 5.27614 6.27614 5.5 6 5.5H4C3.72386 5.5 3.5 5.27614 3.5 5Z" fill="black"/>
<path fill-rule="evenodd" clip-rule="evenodd" d="M4.5 9C4.5 8.72386 4.72386 8.5 5 8.5H7C7.27614 8.5 7.5 8.72386 7.5 9C7.5 9.27614 7.27614 9.5 7 9.5H5C4.72386 9.5 4.5 9.27614 4.5 9Z" fill="black"/>
<path fill-rule="evenodd" clip-rule="evenodd" d="M3.5 11.5C3.5 11.2239 3.72386 11 4 11H6C6.27614 11 6.5 11.2239 6.5 11.5C6.5 11.7761 6.27614 12 6 12H4C3.72386 12 3.5 11.7761 3.5 11.5Z" fill="black"/>
<path fill-rule="evenodd" clip-rule="evenodd" d="M10.5 11.5C10.5 11.2239 10.7239 11 11 11H12C12.2761 11 12.5 11.2239 12.5 11.5C12.5 11.7761 12.2761 12 12 12H11C10.7239 12 10.5 11.7761 10.5 11.5Z" fill="black"/>
<path fill-rule="evenodd" clip-rule="evenodd" d="M10.5 9C10.5 8.72386 10.7239 8.5 11 8.5H12C12.2761 8.5 12.5 8.72386 12.5 9C12.5 9.27614 12.2761 9.5 12 9.5H11C10.7239 9.5 10.5 9.27614 10.5 9Z" fill="black"/>
</svg>
