<svg width="16" height="17" viewBox="0 0 16 17" fill="none" xmlns="http://www.w3.org/2000/svg">
<path fill-rule="evenodd" clip-rule="evenodd" d="M8 4C8.27614 4 8.5 4.22386 8.5 4.5V6C8.5 6.27614 8.27614 6.5 8 6.5C7.72386 6.5 7.5 6.27614 7.5 6V4.5C7.5 4.22386 7.72386 4 8 4Z" fill="#3B3A39"/>
<path fill-rule="evenodd" clip-rule="evenodd" d="M8.32728 0.621994L8 1L7.67991 0.615889C7.86806 0.459091 8.14211 0.461675 8.32728 0.621994ZM7.99305 1.69544C7.97664 1.71247 7.9599 1.73008 7.94289 1.74822C7.72346 1.98228 7.47879 2.28544 7.32221 2.59861C7.1621 2.91883 7.1326 3.16919 7.20254 3.35569C7.26306 3.51707 7.44585 3.75529 7.9965 3.96773C8.51511 3.75863 8.68895 3.5247 8.74786 3.3615C8.81749 3.16858 8.7866 2.91251 8.63227 2.59182C8.48121 2.27794 8.2456 1.97478 8.03484 1.74121C8.0207 1.72554 8.00675 1.71028 7.99305 1.69544ZM7.67991 0.615889C7.68006 0.615762 7.67991 0.615889 8 1C8.32728 0.621994 8.32713 0.621864 8.32728 0.621994L8.32883 0.623345L8.33144 0.62562L8.3397 0.6329C8.34653 0.63895 8.35597 0.647383 8.36775 0.658075C8.3913 0.679447 8.42428 0.709921 8.46452 0.748509C8.54481 0.825516 8.65497 0.935756 8.77727 1.07129C9.01768 1.33772 9.32347 1.72206 9.53335 2.15818C9.73996 2.58749 9.88953 3.14392 9.68847 3.701C9.48236 4.27203 8.96328 4.69553 8.16362 4.97247C8.05951 5.00852 7.94641 5.00918 7.84188 4.97434C7.01946 4.7002 6.48137 4.28057 6.26621 3.70681C6.05489 3.14331 6.2129 2.58117 6.42778 2.15139C6.6462 1.71456 6.96404 1.33022 7.21335 1.06428C7.34027 0.928905 7.45456 0.818824 7.53781 0.741973C7.57953 0.703463 7.61371 0.673064 7.63809 0.651764C7.65029 0.641108 7.66006 0.63271 7.66712 0.626695L7.67564 0.619466L7.67832 0.617216L7.67925 0.616437L7.67991 0.615889Z" fill="#3B3A39"/>
<path fill-rule="evenodd" clip-rule="evenodd" d="M5.875 7.875C6.15114 7.875 6.375 8.09886 6.375 8.375C6.375 8.80598 6.5462 9.2193 6.85095 9.52405C7.1557 9.82879 7.56902 10 8 10C8.43098 10 8.8443 9.8288 9.14905 9.52405C9.45379 9.2193 9.625 8.80598 9.625 8.375C9.625 8.09886 9.84886 7.875 10.125 7.875C10.4011 7.875 10.625 8.09886 10.625 8.375C10.625 9.07119 10.3484 9.73887 9.85615 10.2312C9.36387 10.7234 8.69619 11 8 11C7.30381 11 6.63613 10.7234 6.14384 10.2312C5.65156 9.73887 5.375 9.07119 5.375 8.375C5.375 8.09886 5.59886 7.875 5.875 7.875Z" fill="black"/>
<path fill-rule="evenodd" clip-rule="evenodd" d="M3.1229 6.5C2.9917 6.49945 2.86169 6.52488 2.74037 6.57484C2.61905 6.62479 2.50882 6.69828 2.41605 6.79105C2.32328 6.88382 2.24979 6.99405 2.19984 7.11537C2.14988 7.23669 2.12445 7.3667 2.125 7.4979L2.125 7.5L2.125 8.33125C2.125 9.25861 2.88336 10.019 3.78328 10.0001C4.20843 9.99135 4.61339 9.81629 4.91094 9.51249C5.20849 9.20868 5.37509 8.80035 5.375 8.37511C5.37494 8.09896 5.59875 7.87506 5.87489 7.875C6.15104 7.87494 6.37494 8.09875 6.375 8.37489C6.37515 9.06182 6.10601 9.72144 5.62536 10.2122C5.14471 10.703 4.49083 10.9858 3.80404 10.9999C2.31655 11.0309 1.125 9.79134 1.125 8.33125V7.50098M12.874 5.5H3.12598H12.874ZM14.875 7.50087V8.33125C14.875 9.79134 13.6835 11.0309 12.196 10.9999C11.5092 10.9858 10.8553 10.703 10.3746 10.2122C9.89399 9.72144 9.62486 9.06182 9.625 8.37489C9.62506 8.09875 9.84896 7.87494 10.1251 7.875C10.4012 7.87506 10.6251 8.09896 10.625 8.37511C10.6249 8.80035 10.7915 9.20868 11.0891 9.51249C11.3866 9.81629 11.7914 9.99135 12.2165 10.0001C13.1165 10.019 13.875 9.25861 13.875 8.33125V7.5L13.875 7.4979C13.8756 7.3667 13.8501 7.23669 13.8002 7.11537C13.7502 6.99405 13.6767 6.88382 13.584 6.79105C13.4912 6.69828 13.3809 6.62479 13.2596 6.57484C13.1383 6.52488 13.0083 6.49945 12.8771 6.5L12.875 6.5L3.1229 6.5" fill="black"/>
<path fill-rule="evenodd" clip-rule="evenodd" d="M2.5 9.5813C2.77614 9.5813 3 9.80516 3 10.0813V13.5H13V10.0813C13 9.80516 13.2239 9.5813 13.5 9.5813C13.7761 9.5813 14 9.80516 14 10.0813V13.5C14 13.7653 13.8946 14.0196 13.7071 14.2072C13.5196 14.3947 13.2652 14.5 13 14.5H3C2.73478 14.5 2.48043 14.3947 2.29289 14.2072C2.10536 14.0196 2 13.7653 2 13.5V10.0813C2 9.80516 2.22386 9.5813 2.5 9.5813Z" fill="black"/>
</svg>
