<svg width="16" height="16" viewBox="0 0 16 16" fill="none" xmlns="http://www.w3.org/2000/svg">
<path fill-rule="evenodd" clip-rule="evenodd" d="M1.33337 2.00016C1.33337 1.63197 1.63185 1.3335 2.00004 1.3335H6.66671C7.0349 1.3335 7.33337 1.63197 7.33337 2.00016V6.66683C7.33337 7.03502 7.0349 7.3335 6.66671 7.3335H2.00004C1.63185 7.3335 1.33337 7.03502 1.33337 6.66683V2.00016ZM2.66671 2.66683V6.00016H6.00004V2.66683H2.66671Z" fill="black"/>
<path fill-rule="evenodd" clip-rule="evenodd" d="M8.66663 2.00016C8.66663 1.63197 8.9651 1.3335 9.33329 1.3335H14C14.3681 1.3335 14.6666 1.63197 14.6666 2.00016V6.66683C14.6666 7.03502 14.3681 7.3335 14 7.3335H9.33329C8.9651 7.3335 8.66663 7.03502 8.66663 6.66683V2.00016ZM9.99996 2.66683V6.00016H13.3333V2.66683H9.99996Z" fill="black"/>
<path fill-rule="evenodd" clip-rule="evenodd" d="M8.66663 9.33317C8.66663 8.96498 8.9651 8.6665 9.33329 8.6665H14C14.3681 8.6665 14.6666 8.96498 14.6666 9.33317V13.9998C14.6666 14.368 14.3681 14.6665 14 14.6665H9.33329C8.9651 14.6665 8.66663 14.368 8.66663 13.9998V9.33317ZM9.99996 9.99984V13.3332H13.3333V9.99984H9.99996Z" fill="black"/>
<path fill-rule="evenodd" clip-rule="evenodd" d="M1.33337 9.33317C1.33337 8.96498 1.63185 8.6665 2.00004 8.6665H6.66671C7.0349 8.6665 7.33337 8.96498 7.33337 9.33317V13.9998C7.33337 14.368 7.0349 14.6665 6.66671 14.6665H2.00004C1.63185 14.6665 1.33337 14.368 1.33337 13.9998V9.33317ZM2.66671 9.99984V13.3332H6.00004V9.99984H2.66671Z" fill="black"/>
</svg>
