<svg width="14" height="11" viewBox="0 0 14 11" fill="none" xmlns="http://www.w3.org/2000/svg">
<path fill-rule="evenodd" clip-rule="evenodd" d="M0.792893 0.292893C0.980429 0.105357 1.23478 0 1.5 0H12.5C12.7652 0 13.0196 0.105357 13.2071 0.292893C13.3946 0.48043 13.5 0.734784 13.5 1V10.5C13.5 10.6733 13.4103 10.8342 13.2629 10.9253C13.1155 11.0164 12.9314 11.0247 12.7764 10.9472L11 10.059L9.22361 10.9472C9.08284 11.0176 8.91716 11.0176 8.77639 10.9472L7 10.059L5.22361 10.9472C5.08284 11.0176 4.91716 11.0176 4.77639 10.9472L3 10.059L1.22361 10.9472C1.06861 11.0247 0.884543 11.0164 0.737134 10.9253C0.589726 10.8342 0.5 10.6733 0.5 10.5V1C0.5 0.734783 0.605357 0.480429 0.792893 0.292893ZM12.5 1L1.5 1L1.5 9.69098L2.77639 9.05279C2.91716 8.9824 3.08284 8.9824 3.22361 9.05279L5 9.94098L6.77639 9.05279C6.91716 8.9824 7.08284 8.9824 7.22361 9.05279L9 9.94098L10.7764 9.05279C10.9172 8.9824 11.0828 8.9824 11.2236 9.05279L12.5 9.69098V1Z" fill="black"/>
</svg>
