<svg width="16" height="17" viewBox="0 0 16 17" fill="none" xmlns="http://www.w3.org/2000/svg">
<path fill-rule="evenodd" clip-rule="evenodd" d="M5 2.5C4.72386 2.5 4.5 2.72386 4.5 3V14C4.5 14.2761 4.72386 14.5 5 14.5H11C11.2761 14.5 11.5 14.2761 11.5 14V3C11.5 2.72386 11.2761 2.5 11 2.5H5ZM3.5 3C3.5 2.17157 4.17157 1.5 5 1.5H11C11.8284 1.5 12.5 2.17157 12.5 3V14C12.5 14.8284 11.8284 15.5 11 15.5H5C4.17157 15.5 3.5 14.8284 3.5 14V3Z" fill="#3B3A39"/>
<path fill-rule="evenodd" clip-rule="evenodd" d="M3.5 4C3.5 3.72386 3.72386 3.5 4 3.5H12C12.2761 3.5 12.5 3.72386 12.5 4C12.5 4.27614 12.2761 4.5 12 4.5H4C3.72386 4.5 3.5 4.27614 3.5 4Z" fill="#3B3A39"/>
<path fill-rule="evenodd" clip-rule="evenodd" d="M3.5 13C3.5 12.7239 3.72386 12.5 4 12.5H12C12.2761 12.5 12.5 12.7239 12.5 13C12.5 13.2761 12.2761 13.5 12 13.5H4C3.72386 13.5 3.5 13.2761 3.5 13Z" fill="black"/>
</svg>
