<svg width="16" height="17" viewBox="0 0 16 17" fill="none" xmlns="http://www.w3.org/2000/svg">
<path fill-rule="evenodd" clip-rule="evenodd" d="M8 4.5C8.27614 4.5 8.5 4.72386 8.5 5V6C8.5 6.27614 8.27614 6.5 8 6.5C7.72386 6.5 7.5 6.27614 7.5 6V5C7.5 4.72386 7.72386 4.5 8 4.5Z" fill="#3B3A39"/>
<path fill-rule="evenodd" clip-rule="evenodd" d="M8 10.5C8.27614 10.5 8.5 10.7239 8.5 11V12C8.5 12.2761 8.27614 12.5 8 12.5C7.72386 12.5 7.5 12.2761 7.5 12V11C7.5 10.7239 7.72386 10.5 8 10.5Z" fill="#3B3A39"/>
<path fill-rule="evenodd" clip-rule="evenodd" d="M8 3C4.96243 3 2.5 5.46243 2.5 8.5C2.5 11.5376 4.96243 14 8 14C11.0376 14 13.5 11.5376 13.5 8.5C13.5 5.46243 11.0376 3 8 3ZM1.5 8.5C1.5 4.91015 4.41015 2 8 2C11.5899 2 14.5 4.91015 14.5 8.5C14.5 12.0899 11.5899 15 8 15C4.41015 15 1.5 12.0899 1.5 8.5Z" fill="black"/>
<path fill-rule="evenodd" clip-rule="evenodd" d="M7.25 6.5C7.05109 6.5 6.86032 6.57902 6.71967 6.71967C6.57902 6.86032 6.5 7.05109 6.5 7.25C6.5 7.44891 6.57902 7.63968 6.71967 7.78033C6.86032 7.92098 7.05109 8 7.25 8H8.75C9.21413 8 9.65925 8.18437 9.98744 8.51256C10.3156 8.84075 10.5 9.28587 10.5 9.75C10.5 10.2141 10.3156 10.6592 9.98744 10.9874C9.65925 11.3156 9.21413 11.5 8.75 11.5H6.5C6.22386 11.5 6 11.2761 6 11C6 10.7239 6.22386 10.5 6.5 10.5H8.75C8.94891 10.5 9.13968 10.421 9.28033 10.2803C9.42098 10.1397 9.5 9.94891 9.5 9.75C9.5 9.55109 9.42098 9.36032 9.28033 9.21967C9.13968 9.07902 8.94891 9 8.75 9H7.25C6.78587 9 6.34075 8.81563 6.01256 8.48744C5.68437 8.15925 5.5 7.71413 5.5 7.25C5.5 6.78587 5.68437 6.34075 6.01256 6.01256C6.34075 5.68437 6.78587 5.5 7.25 5.5H9.5C9.77614 5.5 10 5.72386 10 6C10 6.27614 9.77614 6.5 9.5 6.5H7.25Z" fill="black"/>
</svg>
