<svg width="16" height="17" viewBox="0 0 16 17" fill="none" xmlns="http://www.w3.org/2000/svg">
<path fill-rule="evenodd" clip-rule="evenodd" d="M1.63143 3.66214C1.81802 3.45858 2.13431 3.44483 2.33787 3.63143L8 8.82172L13.6621 3.63143C13.8657 3.44483 14.182 3.45858 14.3686 3.66214C14.5552 3.8657 14.5414 4.18198 14.3379 4.36858L8.33787 9.86858C8.1467 10.0438 7.8533 10.0438 7.66214 9.86858L1.66214 4.36858C1.45858 4.18198 1.44483 3.8657 1.63143 3.66214Z" fill="black"/>
<path fill-rule="evenodd" clip-rule="evenodd" d="M1.5 4C1.5 3.72386 1.72386 3.5 2 3.5H14C14.2761 3.5 14.5 3.72386 14.5 4V12.5C14.5 12.7652 14.3946 13.0196 14.2071 13.2071C14.0196 13.3946 13.7652 13.5 13.5 13.5H2.5C2.23478 13.5 1.98043 13.3946 1.79289 13.2071C1.60536 13.0196 1.5 12.7652 1.5 12.5V4ZM2.5 4.5V12.5H13.5V4.5H2.5Z" fill="black"/>
<path fill-rule="evenodd" clip-rule="evenodd" d="M7.27475 8.16205C7.46139 8.36557 7.44772 8.68185 7.2442 8.8685L2.4942 13.2247C2.29069 13.4114 1.9744 13.3977 1.78776 13.1942C1.60111 12.9907 1.61479 12.6744 1.8183 12.4878L6.5683 8.13151C6.77182 7.94486 7.0881 7.95854 7.27475 8.16205Z" fill="black"/>
<path fill-rule="evenodd" clip-rule="evenodd" d="M8.72526 8.16205C8.9119 7.95854 9.22819 7.94486 9.4317 8.13151L14.1817 12.4878C14.3852 12.6744 14.3989 12.9907 14.2122 13.1942C14.0256 13.3977 13.7093 13.4114 13.5058 13.2247L8.7558 8.8685C8.55229 8.68185 8.53861 8.36557 8.72526 8.16205Z" fill="black"/>
</svg>
