<svg width="16" height="16" viewBox="0 0 16 16" fill="none" xmlns="http://www.w3.org/2000/svg">
<path fill-rule="evenodd" clip-rule="evenodd" d="M1.79289 2.79289C1.98043 2.60536 2.23478 2.5 2.5 2.5H13.5C13.7652 2.5 14.0196 2.60536 14.2071 2.79289C14.3946 2.98043 14.5 3.23478 14.5 3.5V13.5C14.5 13.6733 14.4103 13.8342 14.2629 13.9253C14.1155 14.0164 13.9314 14.0247 13.7764 13.9472L12 13.059L10.2236 13.9472C10.0828 14.0176 9.91716 14.0176 9.77639 13.9472L8 13.059L6.22361 13.9472C6.08284 14.0176 5.91716 14.0176 5.77639 13.9472L4 13.059L2.22361 13.9472C2.06861 14.0247 1.88454 14.0164 1.73713 13.9253C1.58973 13.8342 1.5 13.6733 1.5 13.5V3.5C1.5 3.23478 1.60536 2.98043 1.79289 2.79289ZM13.5 3.5L2.5 3.5L2.5 12.691L3.77639 12.0528C3.91716 11.9824 4.08284 11.9824 4.22361 12.0528L6 12.941L7.77639 12.0528C7.91716 11.9824 8.08284 11.9824 8.22361 12.0528L10 12.941L11.7764 12.0528C11.9172 11.9824 12.0828 11.9824 12.2236 12.0528L13.5 12.691V3.5Z" fill="black"/>
<path fill-rule="evenodd" clip-rule="evenodd" d="M8.5 7C8.5 6.72386 8.72386 6.5 9 6.5H12C12.2761 6.5 12.5 6.72386 12.5 7C12.5 7.27614 12.2761 7.5 12 7.5H9C8.72386 7.5 8.5 7.27614 8.5 7Z" fill="black"/>
<path fill-rule="evenodd" clip-rule="evenodd" d="M8.5 9C8.5 8.72386 8.72386 8.5 9 8.5H12C12.2761 8.5 12.5 8.72386 12.5 9C12.5 9.27614 12.2761 9.5 12 9.5H9C8.72386 9.5 8.5 9.27614 8.5 9Z" fill="black"/>
<path fill-rule="evenodd" clip-rule="evenodd" d="M3.5 6C3.5 5.72386 3.72386 5.5 4 5.5H7C7.27614 5.5 7.5 5.72386 7.5 6V10C7.5 10.2761 7.27614 10.5 7 10.5H4C3.72386 10.5 3.5 10.2761 3.5 10V6ZM4.5 6.5V9.5H6.5V6.5H4.5Z" fill="black"/>
</svg>
