<svg width="16" height="17" viewBox="0 0 16 17" fill="none" xmlns="http://www.w3.org/2000/svg">
<path fill-rule="evenodd" clip-rule="evenodd" d="M2.5 3C2.77614 3 3 3.22386 3 3.5V14C3 14.2761 2.77614 14.5 2.5 14.5C2.22386 14.5 2 14.2761 2 14V3.5C2 3.22386 2.22386 3 2.5 3Z" fill="#3B3A39"/>
<path fill-rule="evenodd" clip-rule="evenodd" d="M10.7077 3.84643C11.4916 3.92752 12.303 3.7728 13.2 3.10003C13.3515 2.98639 13.5542 2.96812 13.7236 3.05281C13.893 3.13751 14 3.31064 14 3.50003V11C14 11.1574 13.9259 11.3056 13.8 11.4C12.697 12.2273 11.6334 12.4475 10.6048 12.3411C9.62255 12.2395 8.68826 11.839 7.83705 11.4742L7.80304 11.4596C6.91335 11.0783 6.10945 10.7382 5.2923 10.6536C4.50844 10.5725 3.69703 10.7273 2.8 11.4C2.57908 11.5657 2.26568 11.5209 2.1 11.3C1.93431 11.0791 1.97909 10.7657 2.2 10.6C3.30297 9.7728 4.36655 9.55252 5.3952 9.65893C6.37745 9.76054 7.31174 10.161 8.16295 10.5259L8.19696 10.5405C9.08665 10.9217 9.89054 11.2619 10.7077 11.3464C11.4329 11.4214 12.1817 11.2946 13 10.7425V4.40102C12.1803 4.81527 11.3826 4.92158 10.6048 4.84112C9.62255 4.73951 8.68826 4.33904 7.83705 3.97417L7.80304 3.9596C6.91335 3.5783 6.10945 3.23815 5.2923 3.15362C4.50844 3.07253 3.69703 3.22725 2.8 3.90003C2.57908 4.06571 2.26568 4.02094 2.1 3.80003C1.93431 3.57911 1.97909 3.26571 2.2 3.10003C3.30297 2.2728 4.36655 2.05252 5.3952 2.15893C6.37745 2.26054 7.31174 2.66102 8.16295 3.02588L8.19696 3.04045C9.08665 3.42175 9.89054 3.7619 10.7077 3.84643Z" fill="#3B3A39"/>
</svg>
