<svg width="32" height="32" viewBox="0 0 32 32" fill="none" xmlns="http://www.w3.org/2000/svg">
<path fill-rule="evenodd" clip-rule="evenodd" d="M16 5C9.92487 5 5 9.92487 5 16C5 22.0751 9.92487 27 16 27C22.0751 27 27 22.0751 27 16C27 9.92487 22.0751 5 16 5ZM3 16C3 8.8203 8.8203 3 16 3C23.1797 3 29 8.8203 29 16C29 23.1797 23.1797 29 16 29C8.8203 29 3 23.1797 3 16Z" fill="black"/>
<path fill-rule="evenodd" clip-rule="evenodd" d="M3 16C3 15.4477 3.44772 15 4 15H28C28.5523 15 29 15.4477 29 16C29 16.5523 28.5523 17 28 17H4C3.44772 17 3 16.5523 3 16Z" fill="black"/>
<path fill-rule="evenodd" clip-rule="evenodd" d="M13.3837 8.13822C12.5439 10.0993 12 12.8782 12 16C12 19.1219 12.5439 21.9007 13.3837 23.8618C13.8044 24.8441 14.2797 25.5751 14.7565 26.046C15.229 26.5127 15.6481 26.675 16 26.675C16.3519 26.675 16.771 26.5127 17.2435 26.046C17.7203 25.5751 18.1956 24.8441 18.6163 23.8618C19.4561 21.9007 20 19.1219 20 16C20 12.8782 19.4561 10.0993 18.6163 8.13822C18.1956 7.15591 17.7203 6.42488 17.2435 5.95399C16.771 5.48732 16.3519 5.32501 16 5.32501C15.6481 5.32501 15.229 5.48732 14.7565 5.95399C14.2797 6.42488 13.8044 7.15591 13.3837 8.13822ZM13.3511 4.531C14.075 3.81609 14.9712 3.32501 16 3.32501C17.0288 3.32501 17.9251 3.81609 18.6489 4.531C19.3685 5.24167 19.9707 6.22042 20.4548 7.35086C21.4246 9.61532 22 12.6739 22 16C22 19.3261 21.4246 22.3847 20.4548 24.6492C19.9707 25.7796 19.3685 26.7584 18.6489 27.469C17.925 28.1839 17.0288 28.675 16 28.675C14.9712 28.675 14.075 28.1839 13.3511 27.469C12.6315 26.7584 12.0293 25.7796 11.5452 24.6492C10.5754 22.3847 10 19.3261 10 16C10 12.6739 10.5754 9.61532 11.5452 7.35086C12.0293 6.22042 12.6315 5.24167 13.3511 4.531Z" fill="black"/>
</svg>
