<svg width="16" height="17" viewBox="0 0 16 17" fill="none" xmlns="http://www.w3.org/2000/svg">
<path fill-rule="evenodd" clip-rule="evenodd" d="M9 7.5C9 7.22386 9.22386 7 9.5 7H12C12.2761 7 12.5 7.22386 12.5 7.5C12.5 7.77614 12.2761 8 12 8H9.5C9.22386 8 9 7.77614 9 7.5Z" fill="#3B3A39"/>
<path fill-rule="evenodd" clip-rule="evenodd" d="M9 9.5C9 9.22386 9.22386 9 9.5 9H12C12.2761 9 12.5 9.22386 12.5 9.5C12.5 9.77614 12.2761 10 12 10H9.5C9.22386 10 9 9.77614 9 9.5Z" fill="#3B3A39"/>
<path fill-rule="evenodd" clip-rule="evenodd" d="M5.75626 7C5.20397 7 4.75626 7.44772 4.75626 8C4.75626 8.55228 5.20397 9 5.75626 9C6.30854 9 6.75626 8.55228 6.75626 8C6.75626 7.44772 6.30854 7 5.75626 7ZM3.75626 8C3.75626 6.89543 4.65169 6 5.75626 6C6.86083 6 7.75626 6.89543 7.75626 8C7.75626 9.10457 6.86083 10 5.75626 10C4.65169 10 3.75626 9.10457 3.75626 8Z" fill="black"/>
<path fill-rule="evenodd" clip-rule="evenodd" d="M5.75625 9.99609C5.42319 9.99609 5.0996 10.1069 4.8365 10.3112C4.57339 10.5154 4.38574 10.8014 4.30313 11.124C4.23464 11.3915 3.96225 11.5529 3.69473 11.4844C3.42722 11.4159 3.26589 11.1435 3.33438 10.876C3.47207 10.3382 3.78482 9.8616 4.22332 9.52122C4.66183 9.18085 5.20115 8.99609 5.75625 8.99609C6.31136 8.99609 6.85068 9.18085 7.28919 9.52122C7.72769 9.8616 8.04044 10.3382 8.17813 10.876C8.24662 11.1435 8.08529 11.4159 7.81777 11.4844C7.55026 11.5529 7.27787 11.3915 7.20938 11.124C7.12677 10.8014 6.93912 10.5154 6.67601 10.3112C6.41291 10.1069 6.08932 9.99609 5.75625 9.99609Z" fill="black"/>
<path fill-rule="evenodd" clip-rule="evenodd" d="M1.5 4C1.5 3.44772 1.94772 3 2.5 3H13.5C14.0523 3 14.5 3.44772 14.5 4V13C14.5 13.5523 14.0523 14 13.5 14H2.5C1.94772 14 1.5 13.5523 1.5 13V4ZM13.5 4H2.5V13H13.5V4Z" fill="black"/>
</svg>
