<svg width="21" height="20" viewBox="0 0 21 20" fill="none" xmlns="http://www.w3.org/2000/svg">
<path fill-rule="evenodd" clip-rule="evenodd" d="M6.33337 5.00002C6.33337 4.53978 6.70647 4.16669 7.16671 4.16669H18C18.4603 4.16669 18.8334 4.53978 18.8334 5.00002C18.8334 5.46026 18.4603 5.83335 18 5.83335H7.16671C6.70647 5.83335 6.33337 5.46026 6.33337 5.00002Z" fill="#3B3A39"/>
<path fill-rule="evenodd" clip-rule="evenodd" d="M6.33337 10C6.33337 9.53978 6.70647 9.16669 7.16671 9.16669H18C18.4603 9.16669 18.8334 9.53978 18.8334 10C18.8334 10.4603 18.4603 10.8334 18 10.8334H7.16671C6.70647 10.8334 6.33337 10.4603 6.33337 10Z" fill="#3B3A39"/>
<path fill-rule="evenodd" clip-rule="evenodd" d="M6.33337 15C6.33337 14.5398 6.70647 14.1667 7.16671 14.1667H18C18.4603 14.1667 18.8334 14.5398 18.8334 15C18.8334 15.4603 18.4603 15.8334 18 15.8334H7.16671C6.70647 15.8334 6.33337 15.4603 6.33337 15Z" fill="black"/>
</svg>
