<svg width="16" height="16" viewBox="0 0 16 16" fill="none" xmlns="http://www.w3.org/2000/svg">
<path fill-rule="evenodd" clip-rule="evenodd" d="M3.3335 7.99984C2.96531 7.99984 2.66683 8.29831 2.66683 8.6665V13.3332C2.66683 13.7014 2.96531 13.9998 3.3335 13.9998H12.6668C13.035 13.9998 13.3335 13.7014 13.3335 13.3332V8.6665C13.3335 8.29831 13.035 7.99984 12.6668 7.99984H3.3335ZM1.3335 8.6665C1.3335 7.56193 2.22893 6.6665 3.3335 6.6665H12.6668C13.7714 6.6665 14.6668 7.56193 14.6668 8.6665V13.3332C14.6668 14.4377 13.7714 15.3332 12.6668 15.3332H3.3335C2.22893 15.3332 1.3335 14.4377 1.3335 13.3332V8.6665Z" fill="white"/>
<path fill-rule="evenodd" clip-rule="evenodd" d="M8 1.99984C7.29276 1.99984 6.61448 2.28079 6.11438 2.78089C5.61428 3.28098 5.33333 3.95926 5.33333 4.6665V7.33317C5.33333 7.70136 5.03486 7.99984 4.66667 7.99984C4.29848 7.99984 4 7.70136 4 7.33317V4.6665C4 3.60564 4.42143 2.58822 5.17157 1.83808C5.92172 1.08793 6.93913 0.666504 8 0.666504C9.06087 0.666504 10.0783 1.08793 10.8284 1.83808C11.5786 2.58822 12 3.60564 12 4.6665V7.33317C12 7.70136 11.7015 7.99984 11.3333 7.99984C10.9651 7.99984 10.6667 7.70136 10.6667 7.33317V4.6665C10.6667 3.95926 10.3857 3.28098 9.88562 2.78089C9.38552 2.28079 8.70724 1.99984 8 1.99984Z" fill="white"/>
</svg>
