<svg width="17" height="16" viewBox="0 0 17 16" fill="none" xmlns="http://www.w3.org/2000/svg">
<path fill-rule="evenodd" clip-rule="evenodd" d="M3.83301 2.66683C3.6562 2.66683 3.48663 2.73707 3.3616 2.86209C3.23658 2.98712 3.16634 3.15668 3.16634 3.3335V12.6668C3.16634 12.8436 3.23658 13.0132 3.3616 13.1382C3.48663 13.2633 3.6562 13.3335 3.83301 13.3335H6.49967C6.86786 13.3335 7.16634 13.632 7.16634 14.0002C7.16634 14.3684 6.86786 14.6668 6.49967 14.6668H3.83301C3.30257 14.6668 2.79387 14.4561 2.41879 14.081C2.04372 13.706 1.83301 13.1973 1.83301 12.6668V3.3335C1.83301 2.80306 2.04372 2.29436 2.41879 1.91928C2.79387 1.54421 3.30257 1.3335 3.83301 1.3335H6.49967C6.86786 1.3335 7.16634 1.63197 7.16634 2.00016C7.16634 2.36835 6.86786 2.66683 6.49967 2.66683H3.83301Z" fill="white"/>
<path fill-rule="evenodd" clip-rule="evenodd" d="M10.6953 4.19526C10.9556 3.93491 11.3777 3.93491 11.6381 4.19526L14.9714 7.5286C15.2318 7.78894 15.2318 8.21106 14.9714 8.4714L11.6381 11.8047C11.3777 12.0651 10.9556 12.0651 10.6953 11.8047C10.4349 11.5444 10.4349 11.1223 10.6953 10.8619L13.5572 8L10.6953 5.13807C10.4349 4.87772 10.4349 4.45561 10.6953 4.19526Z" fill="white"/>
<path fill-rule="evenodd" clip-rule="evenodd" d="M5.83301 8.00016C5.83301 7.63197 6.13148 7.3335 6.49967 7.3335H14.4997C14.8679 7.3335 15.1663 7.63197 15.1663 8.00016C15.1663 8.36835 14.8679 8.66683 14.4997 8.66683H6.49967C6.13148 8.66683 5.83301 8.36835 5.83301 8.00016Z" fill="white"/>
</svg>
