<svg width="144" height="144" viewBox="0 0 144 144" fill="none" xmlns="http://www.w3.org/2000/svg">
<g filter="url(#filter0_d_4_118)">
<circle cx="72" cy="69" r="59" fill="#FFE2E0"/>
</g>
<path d="M50.1832 75V63.3636H52.6435V72.9716H57.6321V75H50.1832ZM69.5014 69.1818C69.5014 70.4508 69.2609 71.5303 68.7798 72.4205C68.3026 73.3106 67.651 73.9905 66.8253 74.4602C66.0033 74.9261 65.0791 75.1591 64.0526 75.1591C63.0185 75.1591 62.0904 74.9242 61.2685 74.4545C60.4465 73.9848 59.7969 73.3049 59.3196 72.4148C58.8423 71.5246 58.6037 70.447 58.6037 69.1818C58.6037 67.9129 58.8423 66.8333 59.3196 65.9432C59.7969 65.053 60.4465 64.375 61.2685 63.9091C62.0904 63.4394 63.0185 63.2045 64.0526 63.2045C65.0791 63.2045 66.0033 63.4394 66.8253 63.9091C67.651 64.375 68.3026 65.053 68.7798 65.9432C69.2609 66.8333 69.5014 67.9129 69.5014 69.1818ZM67.0071 69.1818C67.0071 68.3598 66.884 67.6667 66.6378 67.1023C66.3954 66.5379 66.0526 66.1098 65.6094 65.8182C65.1662 65.5265 64.6473 65.3807 64.0526 65.3807C63.4579 65.3807 62.9389 65.5265 62.4957 65.8182C62.0526 66.1098 61.7079 66.5379 61.4616 67.1023C61.2192 67.6667 61.098 68.3598 61.098 69.1818C61.098 70.0038 61.2192 70.697 61.4616 71.2614C61.7079 71.8258 62.0526 72.2538 62.4957 72.5455C62.9389 72.8371 63.4579 72.983 64.0526 72.983C64.6473 72.983 65.1662 72.8371 65.6094 72.5455C66.0526 72.2538 66.3954 71.8258 66.6378 71.2614C66.884 70.697 67.0071 70.0038 67.0071 69.1818ZM79.0398 67.125C78.9602 66.8485 78.8485 66.6042 78.7045 66.392C78.5606 66.1761 78.3845 65.9943 78.1761 65.8466C77.9716 65.6951 77.7367 65.5795 77.4716 65.5C77.2102 65.4205 76.9205 65.3807 76.6023 65.3807C76.0076 65.3807 75.4848 65.5284 75.0341 65.8239C74.5871 66.1193 74.2386 66.5492 73.9886 67.1136C73.7386 67.6742 73.6136 68.3598 73.6136 69.1705C73.6136 69.9811 73.7367 70.6705 73.983 71.2386C74.2292 71.8068 74.5777 72.2405 75.0284 72.5398C75.4792 72.8352 76.0114 72.983 76.625 72.983C77.1818 72.983 77.6572 72.8845 78.0511 72.6875C78.4489 72.4867 78.7519 72.2045 78.9602 71.8409C79.1723 71.4773 79.2784 71.0473 79.2784 70.5511L79.7784 70.625H76.7784V68.7727H81.6477V70.2386C81.6477 71.2614 81.4318 72.1402 81 72.875C80.5682 73.6061 79.9735 74.1705 79.2159 74.5682C78.4583 74.9621 77.5909 75.1591 76.6136 75.1591C75.5227 75.1591 74.5644 74.9186 73.7386 74.4375C72.9129 73.9527 72.2689 73.2652 71.8068 72.375C71.3485 71.4811 71.1193 70.4205 71.1193 69.1932C71.1193 68.25 71.2557 67.4091 71.5284 66.6705C71.8049 65.928 72.1913 65.2992 72.6875 64.7841C73.1837 64.2689 73.7614 63.8769 74.4205 63.608C75.0795 63.339 75.7936 63.2045 76.5625 63.2045C77.2216 63.2045 77.8352 63.3011 78.4034 63.4943C78.9716 63.6837 79.4754 63.9527 79.9148 64.3011C80.358 64.6496 80.7197 65.0644 81 65.5455C81.2803 66.0227 81.4602 66.5492 81.5398 67.125H79.0398ZM94.1889 69.1818C94.1889 70.4508 93.9484 71.5303 93.4673 72.4205C92.9901 73.3106 92.3385 73.9905 91.5128 74.4602C90.6908 74.9261 89.7666 75.1591 88.7401 75.1591C87.706 75.1591 86.7779 74.9242 85.956 74.4545C85.134 73.9848 84.4844 73.3049 84.0071 72.4148C83.5298 71.5246 83.2912 70.447 83.2912 69.1818C83.2912 67.9129 83.5298 66.8333 84.0071 65.9432C84.4844 65.053 85.134 64.375 85.956 63.9091C86.7779 63.4394 87.706 63.2045 88.7401 63.2045C89.7666 63.2045 90.6908 63.4394 91.5128 63.9091C92.3385 64.375 92.9901 65.053 93.4673 65.9432C93.9484 66.8333 94.1889 67.9129 94.1889 69.1818ZM91.6946 69.1818C91.6946 68.3598 91.5715 67.6667 91.3253 67.1023C91.0829 66.5379 90.7401 66.1098 90.2969 65.8182C89.8537 65.5265 89.3348 65.3807 88.7401 65.3807C88.1454 65.3807 87.6264 65.5265 87.1832 65.8182C86.7401 66.1098 86.3954 66.5379 86.1491 67.1023C85.9067 67.6667 85.7855 68.3598 85.7855 69.1818C85.7855 70.0038 85.9067 70.697 86.1491 71.2614C86.3954 71.8258 86.7401 72.2538 87.1832 72.5455C87.6264 72.8371 88.1454 72.983 88.7401 72.983C89.3348 72.983 89.8537 72.8371 90.2969 72.5455C90.7401 72.2538 91.0829 71.8258 91.3253 71.2614C91.5715 70.697 91.6946 70.0038 91.6946 69.1818Z" fill="#3B3A39"/>
<defs>
<filter id="filter0_d_4_118" x="0" y="0" width="144" height="144" filterUnits="userSpaceOnUse" color-interpolation-filters="sRGB">
<feFlood flood-opacity="0" result="BackgroundImageFix"/>
<feColorMatrix in="SourceAlpha" type="matrix" values="0 0 0 0 0 0 0 0 0 0 0 0 0 0 0 0 0 0 127 0" result="hardAlpha"/>
<feOffset dy="3"/>
<feGaussianBlur stdDeviation="6.5"/>
<feComposite in2="hardAlpha" operator="out"/>
<feColorMatrix type="matrix" values="0 0 0 0 0.290196 0 0 0 0 0.333333 0 0 0 0 0.407843 0 0 0 0.15 0"/>
<feBlend mode="normal" in2="BackgroundImageFix" result="effect1_dropShadow_4_118"/>
<feBlend mode="normal" in="SourceGraphic" in2="effect1_dropShadow_4_118" result="shape"/>
</filter>
</defs>
</svg>
