<svg width="16" height="17" viewBox="0 0 16 17" fill="none" xmlns="http://www.w3.org/2000/svg">
<path fill-rule="evenodd" clip-rule="evenodd" d="M2.66667 3.83333C2.30153 3.83333 2.00001 4.13486 2.00001 4.5V12.5C2.00001 12.8651 2.30153 13.1667 2.66667 13.1667H13.3333C13.6985 13.1667 14 12.8651 14 12.5V4.5C14 4.13486 13.6985 3.83333 13.3333 3.83333H2.66667ZM0.666672 4.5C0.666672 3.39848 1.56515 2.5 2.66667 2.5H13.3333C14.4349 2.5 15.3333 3.39848 15.3333 4.5V12.5C15.3333 13.6015 14.4349 14.5 13.3333 14.5H2.66667C1.56515 14.5 0.666672 13.6015 0.666672 12.5V4.5Z" fill="#3B3A39"/>
<path fill-rule="evenodd" clip-rule="evenodd" d="M0.78718 4.11767C0.998323 3.81603 1.41401 3.74268 1.71564 3.95382L8 8.35287L14.2844 3.95382C14.586 3.74268 15.0017 3.81603 15.2128 4.11767C15.424 4.4193 15.3506 4.83499 15.049 5.04613L8.38231 9.7128C8.15276 9.87348 7.84724 9.87348 7.61769 9.7128L0.951026 5.04613C0.649394 4.83499 0.576037 4.4193 0.78718 4.11767Z" fill="#3B3A39"/>
</svg>
