<svg width="16" height="17" viewBox="0 0 16 17" fill="none" xmlns="http://www.w3.org/2000/svg">
<path fill-rule="evenodd" clip-rule="evenodd" d="M5.00257 1.25446C5.19611 1.14387 5.43211 1.13732 5.63148 1.23701L10.6457 3.74411L15.0026 1.25446C15.2089 1.13656 15.4624 1.1374 15.668 1.25669C15.8735 1.37597 16 1.59565 16 1.83329V12.5C16 12.7392 15.8718 12.9601 15.6641 13.0788L10.9974 15.7455C10.8039 15.856 10.5679 15.8626 10.3685 15.7629L5.35431 13.2558L0.997426 15.7455C0.791091 15.8634 0.537592 15.8625 0.332049 15.7432C0.126506 15.624 0 15.4043 0 15.1666V4.49996C0 4.26072 0.128191 4.03983 0.335907 3.92113L5.00257 1.25446ZM5.35431 2.58914L1.33333 4.88684V14.0178L5.00257 11.9211C5.19611 11.8105 5.43211 11.804 5.63148 11.9037L10.6457 14.4108L14.6667 12.1131V2.98208L10.9974 5.07879C10.8039 5.18938 10.5679 5.19593 10.3685 5.09624L5.35431 2.58914Z" fill="#3B3A39"/>
<path fill-rule="evenodd" clip-rule="evenodd" d="M5.33332 1.16663C5.70151 1.16663 5.99999 1.4651 5.99999 1.83329V12.5C5.99999 12.8681 5.70151 13.1666 5.33332 13.1666C4.96513 13.1666 4.66666 12.8681 4.66666 12.5V1.83329C4.66666 1.4651 4.96513 1.16663 5.33332 1.16663Z" fill="#3B3A39"/>
<path fill-rule="evenodd" clip-rule="evenodd" d="M10.6667 3.83337C11.0349 3.83337 11.3333 4.13185 11.3333 4.50004V15.1667C11.3333 15.5349 11.0349 15.8334 10.6667 15.8334C10.2985 15.8334 10 15.5349 10 15.1667V4.50004C10 4.13185 10.2985 3.83337 10.6667 3.83337Z" fill="black"/>
</svg>
