<svg width="16" height="16" viewBox="0 0 16 16" fill="none" xmlns="http://www.w3.org/2000/svg">
<path fill-rule="evenodd" clip-rule="evenodd" d="M3.33337 2.66683C2.96518 2.66683 2.66671 2.96531 2.66671 3.3335V12.6668C2.66671 13.035 2.96518 13.3335 3.33337 13.3335H12.6667C13.0349 13.3335 13.3334 13.035 13.3334 12.6668V3.3335C13.3334 2.96531 13.0349 2.66683 12.6667 2.66683H3.33337ZM1.33337 3.3335C1.33337 2.22893 2.2288 1.3335 3.33337 1.3335H12.6667C13.7713 1.3335 14.6667 2.22893 14.6667 3.3335V12.6668C14.6667 13.7714 13.7713 14.6668 12.6667 14.6668H3.33337C2.2288 14.6668 1.33337 13.7714 1.33337 12.6668V3.3335Z" fill="black"/>
<path fill-rule="evenodd" clip-rule="evenodd" d="M5.66667 5.33333C5.48257 5.33333 5.33333 5.48257 5.33333 5.66667C5.33333 5.85076 5.48257 6 5.66667 6C5.85076 6 6 5.85076 6 5.66667C6 5.48257 5.85076 5.33333 5.66667 5.33333ZM4 5.66667C4 4.74619 4.74619 4 5.66667 4C6.58714 4 7.33333 4.74619 7.33333 5.66667C7.33333 6.58714 6.58714 7.33333 5.66667 7.33333C4.74619 7.33333 4 6.58714 4 5.66667Z" fill="black"/>
<path fill-rule="evenodd" clip-rule="evenodd" d="M10.1952 6.19526C10.4556 5.93491 10.8777 5.93491 11.138 6.19526L14.4714 9.5286C14.7317 9.78894 14.7317 10.2111 14.4714 10.4714C14.211 10.7318 13.7889 10.7318 13.5286 10.4714L10.6666 7.60948L3.8047 14.4714C3.54435 14.7318 3.12224 14.7318 2.86189 14.4714C2.60154 14.2111 2.60154 13.7889 2.86189 13.5286L10.1952 6.19526Z" fill="black"/>
</svg>
