<svg width="17" height="16" viewBox="0 0 17 16" fill="none" xmlns="http://www.w3.org/2000/svg">
<path fill-rule="evenodd" clip-rule="evenodd" d="M8.2038 1.56333C8.2036 1.56343 8.2034 1.56353 8.2032 1.56362L2.87135 4.22956L2.86987 4.23029C2.7588 4.28548 2.66533 4.37057 2.59996 4.47597C2.53462 4.58134 2.49996 4.70285 2.49987 4.82683C2.49987 4.82679 2.49987 4.82687 2.49987 4.82683V11.1779C2.499 11.3022 2.53286 11.4242 2.59765 11.5302C2.66233 11.636 2.75526 11.7217 2.86597 11.7776C2.86579 11.7775 2.86616 11.7777 2.86597 11.7776L8.19801 14.4437C8.29063 14.49 8.39297 14.5142 8.49654 14.5142C8.6001 14.5142 8.70225 14.4901 8.79487 14.4437L14.1284 11.777L14.1299 11.7763C14.2409 11.7211 14.3344 11.636 14.3998 11.5306C14.4651 11.4252 14.4998 11.3036 14.4999 11.1796V4.82696C14.4998 4.70293 14.4651 4.58138 14.3998 4.47597C14.3344 4.37057 14.2409 4.28548 14.1299 4.23029L14.1284 4.22956L8.79654 1.56362C8.79634 1.56353 8.79614 1.56343 8.79594 1.56333C8.70391 1.51771 8.60259 1.49398 8.49987 1.49398C8.39715 1.49398 8.29583 1.51771 8.2038 1.56333ZM9.0932 0.966604L9.38987 0.369583C9.11331 0.232159 8.80869 0.160645 8.49987 0.160645C8.19105 0.160645 7.88643 0.232159 7.60987 0.369583L7.60839 0.370319L2.27654 3.03625C2.27626 3.03639 2.27599 3.03652 2.27571 3.03666C1.94286 3.20225 1.66275 3.45734 1.46682 3.77329C1.27072 4.08951 1.16673 4.45417 1.16654 4.82625L1.16654 11.1712C1.16442 11.543 1.26602 11.9081 1.45994 12.2255C1.6543 12.5435 1.93368 12.8009 2.26655 12.9686L2.26839 12.9696L7.60154 15.6361C7.87939 15.7752 8.18583 15.8476 8.49654 15.8476C8.80717 15.8476 9.11354 15.7752 9.39135 15.6362C9.39128 15.6363 9.39141 15.6362 9.39135 15.6362L14.7232 12.9703C14.7234 12.9702 14.7236 12.9701 14.7239 12.97C15.0568 12.8044 15.337 12.5493 15.5329 12.2332C15.729 11.917 15.833 11.5524 15.8332 11.1803V4.8266C15.833 4.45452 15.729 4.08951 15.5329 3.77329C15.337 3.45735 15.0569 3.20226 14.7241 3.03667C14.7238 3.03653 14.7235 3.03639 14.7232 3.03625L9.39135 0.370319L9.0932 0.966604Z" fill="white"/>
<path fill-rule="evenodd" clip-rule="evenodd" d="M1.45041 3.80861C1.61507 3.47929 2.01552 3.34581 2.34484 3.51047L8.50003 6.58806L14.6552 3.51047C14.9845 3.34581 15.385 3.47929 15.5496 3.80861C15.7143 4.13793 15.5808 4.53838 15.2515 4.70304L8.79817 7.92971C8.61049 8.02355 8.38957 8.02355 8.20189 7.92971L1.74855 4.70304C1.41923 4.53838 1.28575 4.13793 1.45041 3.80861Z" fill="white"/>
<path fill-rule="evenodd" clip-rule="evenodd" d="M8.50016 6.6665C8.86835 6.6665 9.16683 6.96498 9.16683 7.33317V15.1732C9.16683 15.5414 8.86835 15.8398 8.50016 15.8398C8.13197 15.8398 7.8335 15.5414 7.8335 15.1732V7.33317C7.8335 6.96498 8.13197 6.6665 8.50016 6.6665Z" fill="white"/>
<path fill-rule="evenodd" clip-rule="evenodd" d="M4.57053 2.03517C4.73519 1.70586 5.13564 1.57237 5.46496 1.73703L12.1316 5.07036C12.4609 5.23502 12.5944 5.63547 12.4298 5.96479C12.2651 6.29411 11.8647 6.42759 11.5353 6.26293L4.86867 2.9296C4.53935 2.76494 4.40587 2.36449 4.57053 2.03517Z" fill="white"/>
</svg>
