<svg xmlns="http://www.w3.org/2000/svg" xmlns:xlink="http://www.w3.org/1999/xlink" width="24" height="24" preserveAspectRatio="xMidYMid meet" fill="none" viewBox="0 0 24 24"><path fill="none" stroke="currentColor" stroke-linecap="round" stroke-linejoin="round" stroke-width="1.5" d="M10 15v4a2 2 0 01-2 2H4a2 2 0 01-2-2v-4a2 2 0 012-2h4a2 2 0 012 2Zm6-10v4a2 2 0 01-2 2h-4a2 2 0 01-2-2V5a2 2 0 012-2h4a2 2 0 012 2Zm6 10v4a2 2 0 01-2 2h-4a2 2 0 01-2-2v-4a2 2 0 012-2h4a2 2 0 012 2ZM6 16v-3m6-7V3m6 13v-3"/></svg>
 