<svg width="16" height="16" viewBox="0 0 16 16" fill="none" xmlns="http://www.w3.org/2000/svg">
<path fill-rule="evenodd" clip-rule="evenodd" d="M8 2.5C6.067 2.5 4.5 4.067 4.5 6C4.5 7.933 6.067 9.5 8 9.5C9.933 9.5 11.5 7.933 11.5 6C11.5 4.067 9.933 2.5 8 2.5ZM3.5 6C3.5 3.51472 5.51472 1.5 8 1.5C10.4853 1.5 12.5 3.51472 12.5 6C12.5 8.48528 10.4853 10.5 8 10.5C5.51472 10.5 3.5 8.48528 3.5 6Z" fill="black"/>
<path fill-rule="evenodd" clip-rule="evenodd" d="M8.00008 10.4995C6.85899 10.4995 5.73801 10.7999 4.74982 11.3705C3.76164 11.9411 2.94107 12.7618 2.37062 13.75C2.23257 13.9892 1.92678 14.0712 1.68762 13.9331C1.44846 13.7951 1.3665 13.4893 1.50455 13.2501C2.16276 12.1098 3.10957 11.1629 4.24978 10.5045C5.39 9.84612 6.68344 9.49951 8.00008 9.49951C9.31673 9.49951 10.6102 9.84612 11.7504 10.5045C12.8906 11.1629 13.8374 12.1098 14.4956 13.2501C14.6337 13.4893 14.5517 13.7951 14.3125 13.9331C14.0734 14.0712 13.7676 13.9892 13.6295 13.75C13.0591 12.7618 12.2385 11.9411 11.2503 11.3705C10.2622 10.7999 9.14117 10.4995 8.00008 10.4995Z" fill="black"/>
</svg>
