<svg width="17" height="17" viewBox="0 0 17 17" fill="none" xmlns="http://www.w3.org/2000/svg">
<path fill-rule="evenodd" clip-rule="evenodd" d="M5.79289 2.79289C5.98043 2.60536 6.23478 2.5 6.5 2.5H13.5C13.7652 2.5 14.0196 2.60536 14.2071 2.79289C14.3946 2.98043 14.5 3.23478 14.5 3.5V10C14.5 10.2652 14.3946 10.5196 14.2071 10.7071C14.0196 10.8946 13.7652 11 13.5 11H5.5C5.22386 11 5 10.7761 5 10.5C5 10.2239 5.22386 10 5.5 10H13.5V3.5L6.5 3.5L6.5 4C6.5 4.27614 6.27614 4.5 6 4.5C5.72386 4.5 5.5 4.27614 5.5 4V3.5C5.5 3.23478 5.60536 2.98043 5.79289 2.79289Z" fill="white"/>
<path fill-rule="evenodd" clip-rule="evenodd" d="M7.35355 8.64645C7.54882 8.84171 7.54882 9.15829 7.35355 9.35355L6.20711 10.5L7.35355 11.6464C7.54882 11.8417 7.54882 12.1583 7.35355 12.3536C7.15829 12.5488 6.84171 12.5488 6.64645 12.3536L5.14645 10.8536C4.95118 10.6583 4.95118 10.3417 5.14645 10.1464L6.64645 8.64645C6.84171 8.45118 7.15829 8.45118 7.35355 8.64645Z" fill="white"/>
<path fill-rule="evenodd" clip-rule="evenodd" d="M2.79289 6.29289C2.98043 6.10536 3.23478 6 3.5 6H11.5C11.7761 6 12 6.22386 12 6.5C12 6.77614 11.7761 7 11.5 7L3.5 7L3.5 13.5H10.5V13C10.5 12.7239 10.7239 12.5 11 12.5C11.2761 12.5 11.5 12.7239 11.5 13V13.5C11.5 13.7652 11.3946 14.0196 11.2071 14.2071C11.0196 14.3946 10.7652 14.5 10.5 14.5H3.5C3.23478 14.5 2.98043 14.3946 2.79289 14.2071C2.60536 14.0196 2.5 13.7652 2.5 13.5V7C2.5 6.73478 2.60536 6.48043 2.79289 6.29289Z" fill="white"/>
<path fill-rule="evenodd" clip-rule="evenodd" d="M9.64645 4.64645C9.84171 4.45118 10.1583 4.45118 10.3536 4.64645L11.8536 6.14645C12.0488 6.34171 12.0488 6.65829 11.8536 6.85355L10.3536 8.35355C10.1583 8.54882 9.84171 8.54882 9.64645 8.35355C9.45118 8.15829 9.45118 7.84171 9.64645 7.64645L10.7929 6.5L9.64645 5.35355C9.45118 5.15829 9.45118 4.84171 9.64645 4.64645Z" fill="white"/>
</svg>
