<svg width="16" height="16" viewBox="0 0 16 16" fill="none" xmlns="http://www.w3.org/2000/svg">
<path fill-rule="evenodd" clip-rule="evenodd" d="M4.25 6.5C4.25 6.22386 4.47386 6 4.75 6H11.25C11.5261 6 11.75 6.22386 11.75 6.5C11.75 6.77614 11.5261 7 11.25 7H4.75C4.47386 7 4.25 6.77614 4.25 6.5Z" fill="#3B3A39"/>
<path fill-rule="evenodd" clip-rule="evenodd" d="M4.25 8.5C4.25 8.22386 4.47386 8 4.75 8H11.25C11.5261 8 11.75 8.22386 11.75 8.5C11.75 8.77614 11.5261 9 11.25 9H4.75C4.47386 9 4.25 8.77614 4.25 8.5Z" fill="#3B3A39"/>
<path fill-rule="evenodd" clip-rule="evenodd" d="M1.79289 2.79289C1.98043 2.60536 2.23478 2.5 2.5 2.5H13.5C13.7652 2.5 14.0196 2.60536 14.2071 2.79289C14.3946 2.98043 14.5 3.23478 14.5 3.5V13C14.5 13.1733 14.4103 13.3342 14.2629 13.4253C14.1155 13.5164 13.9314 13.5247 13.7764 13.4472L12 12.559L10.2236 13.4472C10.0828 13.5176 9.91716 13.5176 9.77639 13.4472L8 12.559L6.22361 13.4472C6.08284 13.5176 5.91716 13.5176 5.77639 13.4472L4 12.559L2.22361 13.4472C2.06861 13.5247 1.88454 13.5164 1.73713 13.4253C1.58973 13.3342 1.5 13.1733 1.5 13V3.5C1.5 3.23478 1.60536 2.98043 1.79289 2.79289ZM13.5 3.5L2.5 3.5L2.5 12.191L3.77639 11.5528C3.91716 11.4824 4.08284 11.4824 4.22361 11.5528L6 12.441L7.77639 11.5528C7.91716 11.4824 8.08284 11.4824 8.22361 11.5528L10 12.441L11.7764 11.5528C11.9172 11.4824 12.0828 11.4824 12.2236 11.5528L13.5 12.191V3.5Z" fill="black"/>
</svg>
