<svg width="16" height="16" viewBox="0 0 16 16" fill="none" xmlns="http://www.w3.org/2000/svg">
<g clip-path="url(#clip0_1722_276)">
<path fill-rule="evenodd" clip-rule="evenodd" d="M15.138 0.861949C15.3984 1.1223 15.3984 1.54441 15.138 1.80476L7.8047 9.13809C7.54435 9.39844 7.12224 9.39844 6.86189 9.13809C6.60154 8.87774 6.60154 8.45563 6.86189 8.19528L14.1952 0.861949C14.4556 0.6016 14.8777 0.6016 15.138 0.861949Z" fill="#3B3A39"/>
<path fill-rule="evenodd" clip-rule="evenodd" d="M15.138 0.861907C15.3191 1.043 15.3805 1.31182 15.2959 1.55354L10.6292 14.8869C10.5389 15.1449 10.3003 15.3216 10.0271 15.3328C9.75402 15.3439 9.50177 15.1872 9.39075 14.9374L6.82823 9.17171L1.06254 6.60919C0.81275 6.49817 0.656041 6.24592 0.667183 5.9728C0.678326 5.69968 0.855062 5.46104 1.11306 5.37074L14.4464 0.704072C14.6881 0.619469 14.9569 0.680815 15.138 0.861907ZM3.14068 6.07371L7.60405 8.05744C7.75488 8.12447 7.87547 8.24506 7.9425 8.39588L9.92623 12.8593L13.58 2.41996L3.14068 6.07371Z" fill="#3B3A39"/>
</g>
<defs>
<clipPath id="clip0_1722_276">
<rect width="16" height="16" fill="white"/>
</clipPath>
</defs>
</svg>
