<svg width="20" height="20" viewBox="0 0 20 20" fill="none" xmlns="http://www.w3.org/2000/svg">
<path fill-rule="evenodd" clip-rule="evenodd" d="M15.0003 2.49992C14.0799 2.49992 13.3337 3.24611 13.3337 4.16659C13.3337 5.08706 14.0799 5.83325 15.0003 5.83325C15.9208 5.83325 16.667 5.08706 16.667 4.16659C16.667 3.24611 15.9208 2.49992 15.0003 2.49992ZM11.667 4.16659C11.667 2.32564 13.1594 0.833252 15.0003 0.833252C16.8413 0.833252 18.3337 2.32564 18.3337 4.16659C18.3337 6.00753 16.8413 7.49992 15.0003 7.49992C13.1594 7.49992 11.667 6.00753 11.667 4.16659Z" fill="black"/>
<path fill-rule="evenodd" clip-rule="evenodd" d="M5.00033 8.33341C4.07985 8.33341 3.33366 9.07961 3.33366 10.0001C3.33366 10.9206 4.07985 11.6667 5.00033 11.6667C5.9208 11.6667 6.66699 10.9206 6.66699 10.0001C6.66699 9.07961 5.9208 8.33341 5.00033 8.33341ZM1.66699 10.0001C1.66699 8.15913 3.15938 6.66675 5.00033 6.66675C6.84127 6.66675 8.33366 8.15913 8.33366 10.0001C8.33366 11.841 6.84127 13.3334 5.00033 13.3334C3.15938 13.3334 1.66699 11.841 1.66699 10.0001Z" fill="black"/>
<path fill-rule="evenodd" clip-rule="evenodd" d="M15.0003 14.1667C14.0799 14.1667 13.3337 14.9129 13.3337 15.8333C13.3337 16.7538 14.0799 17.5 15.0003 17.5C15.9208 17.5 16.667 16.7538 16.667 15.8333C16.667 14.9129 15.9208 14.1667 15.0003 14.1667ZM11.667 15.8333C11.667 13.9924 13.1594 12.5 15.0003 12.5C16.8413 12.5 18.3337 13.9924 18.3337 15.8333C18.3337 17.6743 16.8413 19.1667 15.0003 19.1667C13.1594 19.1667 11.667 17.6743 11.667 15.8333Z" fill="black"/>
<path fill-rule="evenodd" clip-rule="evenodd" d="M6.43866 10.8387C6.67038 10.4411 7.18058 10.3065 7.57823 10.5383L13.2699 13.8549C13.6675 14.0867 13.8021 14.5969 13.5703 14.9945C13.3386 15.3922 12.8284 15.5267 12.4308 15.2949L6.7391 11.9783C6.34145 11.7466 6.20694 11.2364 6.43866 10.8387Z" fill="black"/>
<path fill-rule="evenodd" clip-rule="evenodd" d="M13.5617 5.005C13.7937 5.4025 13.6595 5.91279 13.262 6.14476L7.57869 9.46143C7.18119 9.6934 6.6709 9.55921 6.43892 9.16171C6.20695 8.76421 6.34114 8.25392 6.73864 8.02195L12.422 4.70528C12.8195 4.47331 13.3298 4.6075 13.5617 5.005Z" fill="black"/>
</svg>
