<svg width="16" height="16" viewBox="0 0 16 16" fill="none" xmlns="http://www.w3.org/2000/svg">
<path fill-rule="evenodd" clip-rule="evenodd" d="M8 6.75C6.89543 6.75 6 7.64543 6 8.75C6 9.85457 6.89543 10.75 8 10.75C9.10457 10.75 10 9.85457 10 8.75C10 7.64543 9.10457 6.75 8 6.75ZM5 8.75C5 7.09315 6.34315 5.75 8 5.75C9.65685 5.75 11 7.09315 11 8.75C11 10.4069 9.65685 11.75 8 11.75C6.34315 11.75 5 10.4069 5 8.75Z" fill="black"/>
<path fill-rule="evenodd" clip-rule="evenodd" d="M13.7041 8.09179C13.2529 7.8662 12.7553 7.74916 12.2508 7.75C11.9747 7.75047 11.7505 7.52698 11.75 7.25084C11.7495 6.9747 11.973 6.75047 12.2492 6.75001C12.9094 6.7489 13.5608 6.90209 14.1513 7.19736C14.7419 7.49264 15.2552 7.92182 15.6505 8.45068C15.8158 8.67187 15.7705 8.98519 15.5493 9.15051C15.3281 9.31582 15.0148 9.27053 14.8495 9.04934C14.5475 8.64528 14.1553 8.31738 13.7041 8.09179Z" fill="black"/>
<path fill-rule="evenodd" clip-rule="evenodd" d="M3.74919 7.75C3.24476 7.74916 2.7471 7.8662 2.29592 8.09179C1.84474 8.31738 1.45252 8.64528 1.15053 9.04934C0.985216 9.27053 0.67189 9.31582 0.4507 9.15051C0.229509 8.98519 0.184213 8.67187 0.349529 8.45068C0.744792 7.92182 1.25817 7.49264 1.84871 7.19736C2.43925 6.90209 3.09062 6.7489 3.75087 6.75001C4.02701 6.75047 4.25049 6.9747 4.25003 7.25084C4.24957 7.52698 4.02534 7.75047 3.74919 7.75Z" fill="black"/>
<path fill-rule="evenodd" clip-rule="evenodd" d="M8.00002 11.7517C7.34326 11.7517 6.6997 11.9362 6.14266 12.2841C5.58562 12.632 5.13748 13.1293 4.84931 13.7195C4.72815 13.9676 4.42877 14.0706 4.18063 13.9494C3.93249 13.8282 3.82955 13.5289 3.95072 13.2807C4.32108 12.5222 4.89702 11.883 5.61293 11.4359C6.32884 10.9888 7.15594 10.7517 8.00002 10.7517C8.84409 10.7517 9.67119 10.9888 10.3871 11.4359C11.103 11.883 11.679 12.5222 12.0493 13.2807C12.1705 13.5289 12.0675 13.8282 11.8194 13.9494C11.5713 14.0706 11.2719 13.9676 11.1507 13.7195C10.8625 13.1293 10.4144 12.632 9.85737 12.2841C9.30033 11.9362 8.65677 11.7517 8.00002 11.7517Z" fill="black"/>
<path fill-rule="evenodd" clip-rule="evenodd" d="M4.12058 3.797C3.8448 3.72629 3.5546 3.73553 3.28387 3.82363C3.01315 3.91173 2.77308 4.07505 2.59174 4.29452C2.41039 4.51399 2.29524 4.78053 2.25975 5.06301C2.22426 5.34549 2.26989 5.63224 2.39131 5.88974C2.51274 6.14725 2.70493 6.36488 2.94545 6.51722C3.18597 6.66955 3.46487 6.75029 3.74957 6.75C4.02571 6.74972 4.2498 6.97335 4.25008 7.24949C4.25036 7.52563 4.02673 7.74972 3.75058 7.75C3.27609 7.75048 2.81125 7.61592 2.41039 7.36203C2.00953 7.10814 1.68919 6.74542 1.48682 6.31624C1.28445 5.88706 1.2084 5.40915 1.26755 4.93835C1.3267 4.46756 1.51861 4.02331 1.82086 3.65753C2.12311 3.29176 2.52321 3.01955 2.97442 2.87271C3.42563 2.72588 3.90931 2.71048 4.36894 2.82833C4.82857 2.94617 5.24517 3.19239 5.57007 3.53821C5.89497 3.88403 6.11474 4.31517 6.20371 4.78125C6.25549 5.05249 6.07757 5.31435 5.80633 5.36613C5.53508 5.41791 5.27322 5.23999 5.22145 4.96875C5.16806 4.6891 5.0362 4.43042 4.84126 4.22292C4.64632 4.01543 4.39636 3.8677 4.12058 3.797Z" fill="black"/>
<path fill-rule="evenodd" clip-rule="evenodd" d="M12.7164 3.82363C12.4457 3.73553 12.1555 3.72629 11.8797 3.797C11.6039 3.8677 11.3539 4.01543 11.159 4.22292C10.9641 4.43042 10.8322 4.6891 10.7788 4.96875C10.727 5.23999 10.4652 5.41791 10.1939 5.36613C9.92269 5.31435 9.74478 5.05249 9.79656 4.78125C9.88553 4.31517 10.1053 3.88403 10.4302 3.53821C10.7551 3.19239 11.1717 2.94617 11.6313 2.82833C12.091 2.71048 12.5746 2.72588 13.0258 2.87271C13.4771 3.01955 13.8772 3.29176 14.1794 3.65753C14.4817 4.02331 14.6736 4.46756 14.7327 4.93835C14.7919 5.40915 14.7158 5.88706 14.5134 6.31624C14.3111 6.74542 13.9907 7.10814 13.5899 7.36203C13.189 7.61592 12.7242 7.75048 12.2497 7.75C11.9735 7.74972 11.7499 7.52563 11.7502 7.24949C11.7505 6.97335 11.9746 6.74972 12.2507 6.75C12.5354 6.75029 12.8143 6.66955 13.0548 6.51722C13.2953 6.36489 13.4875 6.14725 13.609 5.88974C13.7304 5.63223 13.776 5.34549 13.7405 5.06301C13.705 4.78053 13.5899 4.51399 13.4085 4.29452C13.2272 4.07505 12.9871 3.91173 12.7164 3.82363Z" fill="black"/>
</svg>
