<svg width="159" height="88" viewBox="0 0 159 88" fill="none" xmlns="http://www.w3.org/2000/svg">
<g clip-path="url(#clip0_936_3335)">
<g opacity="0.88" clip-path="url(#clip1_936_3335)">
<path fill-rule="evenodd" clip-rule="evenodd" d="M87.2667 20.5332C90.1017 20.5332 92.4 22.8315 92.4 25.6665C92.4 28.5016 90.1017 30.7999 87.2667 30.7999H134.2C137.035 30.7999 139.333 33.0981 139.333 35.9332C139.333 38.7683 137.035 41.0665 134.2 41.0665H150.333C153.168 41.0665 155.467 43.3648 155.467 46.1999C155.467 49.0349 153.168 51.3332 150.333 51.3332H136.4C133.565 51.3332 131.267 53.6315 131.267 56.4665C131.267 59.3016 133.565 61.5999 136.4 61.5999H140.8C143.635 61.5999 145.933 63.8981 145.933 66.7332C145.933 69.5683 143.635 71.8665 140.8 71.8665H102.667C102.289 71.8665 101.921 71.8258 101.567 71.7484C101.212 71.8258 100.844 71.8665 100.467 71.8665H33.7333C30.8983 71.8665 28.6 69.5683 28.6 66.7332C28.6 63.8981 30.8983 61.5999 33.7333 61.5999H5.13333C2.29827 61.5999 0 59.3016 0 56.4665C0 53.6315 2.29827 51.3332 5.13333 51.3332H34.4667C37.3017 51.3332 39.6 49.0349 39.6 46.1999C39.6 43.3648 37.3017 41.0665 34.4667 41.0665H16.1333C13.2983 41.0665 11 38.7683 11 35.9332C11 33.0981 13.2983 30.7999 16.1333 30.7999H45.4667C42.6316 30.7999 40.3333 28.5016 40.3333 25.6665C40.3333 22.8315 42.6316 20.5332 45.4667 20.5332H87.2667ZM153.267 61.5999C156.102 61.5999 158.4 63.8981 158.4 66.7332C158.4 69.5683 156.102 71.8665 153.267 71.8665C150.432 71.8665 148.133 69.5683 148.133 66.7332C148.133 63.8981 150.432 61.5999 153.267 61.5999Z" fill="#81B2CA"/>
<path fill-rule="evenodd" clip-rule="evenodd" d="M54.1419 75L47.8194 76.043C46.2152 76.2684 44.7318 75.1507 44.5064 73.5464L36.3415 15.4507C36.1161 13.8464 37.2339 12.3631 38.8381 12.1377L96.2076 4.07491C97.8119 3.84944 99.2952 4.96717 99.5207 6.57144C99.8687 9.04785 101.287 18.6482 101.406 19.5" fill="white"/>
<path fill-rule="evenodd" clip-rule="evenodd" d="M52.6578 72.389L49.9475 72.7742C48.4908 72.9812 47.1457 71.9684 46.9433 70.5119L39.6136 17.767C39.4111 16.3105 40.428 14.9619 41.8847 14.7549L93.9789 7.35058C95.4357 7.14353 96.7807 8.15641 96.9831 9.61292L97.613 14.1455C97.6471 14.3907 99.8973 30.6703 104.364 62.9842C104.588 64.6068 103.469 66.1061 101.865 66.3329C101.848 66.3354 101.83 66.3376 101.813 66.3398L52.6578 72.389Z" fill="white"/>
<path d="M50.8042 75.6233L47.8194 76.0428C46.2152 76.2682 44.7319 75.1505 44.5064 73.5462L36.3416 15.4505C36.1161 13.8462 37.2339 12.3629 38.8381 12.1375L96.2077 4.07472C97.8119 3.84925 99.2952 4.96699 99.5207 6.57126C99.8687 9.04767 100.103 10.7118 100.222 11.5636" stroke="#2F2762" stroke-width="2.5" stroke-linecap="round"/>
<path d="M100.834 14.9448L101.201 17.2331" stroke="#2F2762" stroke-width="2.5" stroke-linecap="round"/>
<path fill-rule="evenodd" clip-rule="evenodd" d="M120.568 22.2191L62.9519 16.1634C62.3981 16.1052 61.8731 16.277 61.472 16.6018C61.0709 16.9266 60.7937 17.4044 60.7355 17.9583L54.6032 76.3035C54.5449 76.8574 54.7167 77.3824 55.0415 77.7835C55.3663 78.1846 55.8441 78.4617 56.398 78.5199L114.014 84.5756C114.568 84.6338 115.093 84.4621 115.494 84.1373C115.895 83.8125 116.172 83.3346 116.23 82.7808L122.363 24.4355C122.421 23.8817 122.249 23.3567 121.924 22.9556C121.6 22.5545 121.122 22.2773 120.568 22.2191Z" fill="white" stroke="#2F2762" stroke-width="2.5"/>
<path fill-rule="evenodd" clip-rule="evenodd" d="M68.1928 22.4287L114.14 27.2579C115.348 27.3849 116.225 28.4674 116.098 29.6758L112.035 68.3296C111.908 69.5379 110.826 70.4146 109.617 70.2876L63.6702 65.4583C62.4619 65.3313 61.5852 64.2488 61.7122 63.0404L65.7749 24.3867C65.9019 23.1783 66.9845 22.3017 68.1928 22.4287Z" fill="white"/>
<path fill-rule="evenodd" clip-rule="evenodd" d="M68.0094 54.1771L75.1942 49.3312C76.3922 48.5232 78.0002 48.708 78.9837 49.7668L84.2443 55.4303C84.5069 55.7129 84.9436 55.7438 85.2433 55.501L96.4925 46.3859C97.7512 45.366 99.5984 45.5596 100.618 46.8183C100.684 46.8996 100.746 46.9844 100.803 47.0723L108.122 58.393L109.173 60.1471L108.67 66.1053C108.636 66.5088 108.281 66.8084 107.877 66.7743C107.871 66.7737 107.864 66.7731 107.858 66.7724L66.0852 62.1313C65.6881 62.0871 65.3993 61.7331 65.436 61.3352L65.9896 55.3228L68.0094 54.1771Z" fill="white"/>
<path fill-rule="evenodd" clip-rule="evenodd" d="M114.044 28.1699L68.0966 23.3407C67.7442 23.3036 67.4101 23.413 67.1548 23.6197C66.8996 23.8263 66.7232 24.1304 66.6862 24.4828L62.6235 63.1366C62.5865 63.489 62.6958 63.8231 62.9025 64.0784C63.1092 64.3336 63.4132 64.51 63.7657 64.547L109.713 69.3763C110.065 69.4133 110.399 69.304 110.654 69.0973C110.91 68.8906 111.086 68.5865 111.123 68.2341L115.186 29.5804C115.223 29.2279 115.113 28.8938 114.907 28.6386C114.7 28.3833 114.396 28.2069 114.044 28.1699Z" stroke="#2F2762" stroke-width="2.5"/>
<path d="M76.5635 41.0057C78.9802 41.2597 81.1453 39.5064 81.3993 37.0897C81.6533 34.673 79.9001 32.5079 77.4833 32.2539C75.0666 31.9999 72.9015 33.7531 72.6475 36.1698C72.3935 38.5866 74.1467 40.7516 76.5635 41.0057Z" fill="white" stroke="#2F2762" stroke-width="2.5"/>
<path d="M66.5348 55.3117C68.4593 53.9828 71.3459 51.9893 75.1949 49.3313C76.3929 48.5233 78.0009 48.7082 78.9843 49.7669L84.245 55.4304C84.5075 55.7131 84.9442 55.744 85.2439 55.5011L96.4932 46.386C97.7519 45.3661 99.599 45.5597 100.619 46.8184C100.685 46.8998 100.746 46.9846 100.803 47.0725C105.188 54.0297 107.892 58.3212 108.917 59.9469" stroke="#2F2762" stroke-width="2.5" stroke-linecap="round"/>
</g>
</g>
<defs>
<clipPath id="clip0_936_3335">
<rect width="158.4" height="88" fill="white"/>
</clipPath>
<clipPath id="clip1_936_3335">
<rect width="158.4" height="88" fill="white"/>
</clipPath>
</defs>
</svg>
