<svg width="16" height="17" viewBox="0 0 16 17" fill="none" xmlns="http://www.w3.org/2000/svg">
<path fill-rule="evenodd" clip-rule="evenodd" d="M8 7.25C6.89543 7.25 6 8.14543 6 9.25C6 10.3546 6.89543 11.25 8 11.25C9.10457 11.25 10 10.3546 10 9.25C10 8.14543 9.10457 7.25 8 7.25ZM5 9.25C5 7.59315 6.34315 6.25 8 6.25C9.65685 6.25 11 7.59315 11 9.25C11 10.9069 9.65685 12.25 8 12.25C6.34315 12.25 5 10.9069 5 9.25Z" fill="#3B3A39"/>
<path fill-rule="evenodd" clip-rule="evenodd" d="M13.7041 8.59179C13.2529 8.3662 12.7553 8.24916 12.2508 8.25C11.9747 8.25047 11.7505 8.02698 11.75 7.75084C11.7495 7.4747 11.973 7.25047 12.2492 7.25001C12.9094 7.2489 13.5608 7.40209 14.1513 7.69736C14.7419 7.99264 15.2552 8.42182 15.6505 8.95068C15.8158 9.17187 15.7705 9.48519 15.5493 9.65051C15.3281 9.81582 15.0148 9.77053 14.8495 9.54934C14.5475 9.14528 14.1553 8.81738 13.7041 8.59179Z" fill="#3B3A39"/>
<path fill-rule="evenodd" clip-rule="evenodd" d="M3.74919 8.25C3.24476 8.24916 2.7471 8.3662 2.29592 8.59179C1.84474 8.81738 1.45252 9.14528 1.15053 9.54934C0.985216 9.77053 0.67189 9.81582 0.4507 9.65051C0.229509 9.48519 0.184213 9.17187 0.349529 8.95068C0.744792 8.42182 1.25817 7.99264 1.84871 7.69736C2.43925 7.40209 3.09062 7.2489 3.75087 7.25001C4.02701 7.25047 4.25049 7.4747 4.25003 7.75084C4.24957 8.02698 4.02534 8.25047 3.74919 8.25Z" fill="black"/>
<path fill-rule="evenodd" clip-rule="evenodd" d="M8.00002 12.2516C7.34326 12.2516 6.6997 12.436 6.14266 12.7839C5.58562 13.1319 5.13748 13.6292 4.84931 14.2194C4.72815 14.4675 4.42877 14.5704 4.18063 14.4493C3.93249 14.3281 3.82955 14.0287 3.95072 13.7806C4.32108 13.0221 4.89702 12.3829 5.61293 11.9358C6.32884 11.4887 7.15594 11.2516 8.00002 11.2516C8.84409 11.2516 9.67119 11.4887 10.3871 11.9358C11.103 12.3829 11.679 13.0221 12.0493 13.7806C12.1705 14.0287 12.0675 14.3281 11.8194 14.4493C11.5713 14.5704 11.2719 14.4675 11.1507 14.2194C10.8625 13.6292 10.4144 13.1319 9.85737 12.7839C9.30033 12.436 8.65677 12.2516 8.00002 12.2516Z" fill="black"/>
<path fill-rule="evenodd" clip-rule="evenodd" d="M4.12052 4.297C3.84474 4.22629 3.55454 4.23553 3.28381 4.32363C3.01309 4.41173 2.77302 4.57505 2.59167 4.79452C2.41033 5.01399 2.29518 5.28053 2.25969 5.56301C2.2242 5.84549 2.26983 6.13224 2.39125 6.38974C2.51268 6.64725 2.70487 6.86488 2.94539 7.01722C3.18591 7.16955 3.46481 7.25029 3.74951 7.25C4.02565 7.24972 4.24974 7.47335 4.25002 7.74949C4.2503 8.02563 4.02667 8.24972 3.75052 8.25C3.27603 8.25048 2.81119 8.11592 2.41033 7.86203C2.00946 7.60814 1.68913 7.24542 1.48676 6.81624C1.28439 6.38706 1.20834 5.90915 1.26749 5.43835C1.32664 4.96756 1.51855 4.52331 1.8208 4.15753C2.12305 3.79176 2.52315 3.51955 2.97436 3.37271C3.42557 3.22588 3.90925 3.21048 4.36888 3.32833C4.82851 3.44617 5.24511 3.69239 5.57001 4.03821C5.89491 4.38403 6.11468 4.81517 6.20365 5.28125C6.25543 5.55249 6.07751 5.81435 5.80627 5.86613C5.53502 5.91791 5.27316 5.73999 5.22138 5.46875C5.168 5.1891 5.03614 4.93042 4.8412 4.72292C4.64626 4.51543 4.3963 4.3677 4.12052 4.297Z" fill="black"/>
<path fill-rule="evenodd" clip-rule="evenodd" d="M12.7162 4.32363C12.4455 4.23553 12.1553 4.22629 11.8795 4.297C11.6037 4.3677 11.3538 4.51543 11.1588 4.72292C10.9639 4.93042 10.832 5.1891 10.7786 5.46875C10.7269 5.73999 10.465 5.91791 10.1938 5.86613C9.92251 5.81435 9.7446 5.55249 9.79637 5.28125C9.88534 4.81517 10.1051 4.38403 10.43 4.03821C10.7549 3.69239 11.1715 3.44617 11.6311 3.32833C12.0908 3.21048 12.5745 3.22588 13.0257 3.37271C13.4769 3.51955 13.877 3.79176 14.1792 4.15753C14.4815 4.52331 14.6734 4.96756 14.7325 5.43835C14.7917 5.90915 14.7156 6.38706 14.5133 6.81624C14.3109 7.24542 13.9906 7.60814 13.5897 7.86203C13.1888 8.11592 12.724 8.25048 12.2495 8.25C11.9734 8.24972 11.7497 8.02563 11.75 7.74949C11.7503 7.47335 11.9744 7.24972 12.2505 7.25C12.5352 7.25029 12.8141 7.16955 13.0546 7.01722C13.2951 6.86489 13.4873 6.64725 13.6088 6.38974C13.7302 6.13223 13.7758 5.84549 13.7403 5.56301C13.7048 5.28053 13.5897 5.01399 13.4083 4.79452C13.227 4.57505 12.9869 4.41173 12.7162 4.32363Z" fill="black"/>
</svg>
