<svg width="16" height="17" viewBox="0 0 16 17" fill="none" xmlns="http://www.w3.org/2000/svg">
<path fill-rule="evenodd" clip-rule="evenodd" d="M0.976311 10.8097C1.60143 10.1846 2.44928 9.83337 3.33333 9.83337H8C8.88406 9.83337 9.7319 10.1846 10.357 10.8097C10.9821 11.4348 11.3333 12.2827 11.3333 13.1667V14.5C11.3333 14.8682 11.0349 15.1667 10.6667 15.1667C10.2985 15.1667 10 14.8682 10 14.5V13.1667C10 12.6363 9.78929 12.1276 9.41421 11.7525C9.03914 11.3774 8.53043 11.1667 8 11.1667H3.33333C2.8029 11.1667 2.29419 11.3774 1.91912 11.7525C1.54405 12.1276 1.33333 12.6363 1.33333 13.1667V14.5C1.33333 14.8682 1.03486 15.1667 0.666667 15.1667C0.298477 15.1667 0 14.8682 0 14.5V13.1667C0 12.2827 0.35119 11.4348 0.976311 10.8097Z" fill="white"/>
<path fill-rule="evenodd" clip-rule="evenodd" d="M5.66671 3.16671C4.56214 3.16671 3.66671 4.06214 3.66671 5.16671C3.66671 6.27128 4.56214 7.16671 5.66671 7.16671C6.77128 7.16671 7.66671 6.27128 7.66671 5.16671C7.66671 4.06214 6.77128 3.16671 5.66671 3.16671ZM2.33337 5.16671C2.33337 3.32576 3.82576 1.83337 5.66671 1.83337C7.50766 1.83337 9.00004 3.32576 9.00004 5.16671C9.00004 7.00766 7.50766 8.50004 5.66671 8.50004C3.82576 8.50004 2.33337 7.00766 2.33337 5.16671Z" fill="white"/>
<path fill-rule="evenodd" clip-rule="evenodd" d="M13.3333 5.16663C13.7015 5.16663 14 5.4651 14 5.83329V9.83329C14 10.2015 13.7015 10.5 13.3333 10.5C12.9651 10.5 12.6666 10.2015 12.6666 9.83329V5.83329C12.6666 5.4651 12.9651 5.16663 13.3333 5.16663Z" fill="white"/>
<path fill-rule="evenodd" clip-rule="evenodd" d="M10.6666 7.83329C10.6666 7.4651 10.9651 7.16663 11.3333 7.16663H15.3333C15.7015 7.16663 16 7.4651 16 7.83329C16 8.20148 15.7015 8.49996 15.3333 8.49996H11.3333C10.9651 8.49996 10.6666 8.20148 10.6666 7.83329Z" fill="white"/>
</svg>
