<svg width="16" height="16" viewBox="0 0 16 16" fill="none" xmlns="http://www.w3.org/2000/svg">
<g clip-path="url(#clip0_392_4572)">
<path fill-rule="evenodd" clip-rule="evenodd" d="M7.99996 1.99984C4.68625 1.99984 1.99996 4.68613 1.99996 7.99984C1.99996 11.3135 4.68625 13.9998 7.99996 13.9998C11.3137 13.9998 14 11.3135 14 7.99984C14 4.68613 11.3137 1.99984 7.99996 1.99984ZM0.666626 7.99984C0.666626 3.94975 3.94987 0.666504 7.99996 0.666504C12.05 0.666504 15.3333 3.94975 15.3333 7.99984C15.3333 12.0499 12.05 15.3332 7.99996 15.3332C3.94987 15.3332 0.666626 12.0499 0.666626 7.99984Z" fill="black"/>
<path fill-rule="evenodd" clip-rule="evenodd" d="M8.00004 3.3335C8.36823 3.3335 8.66671 3.63197 8.66671 4.00016V7.58814L10.9648 8.73721C11.2942 8.90187 11.4277 9.30232 11.263 9.63164C11.0983 9.96096 10.6979 10.0944 10.3686 9.92978L7.7019 8.59645C7.47604 8.48352 7.33337 8.25268 7.33337 8.00016V4.00016C7.33337 3.63197 7.63185 3.3335 8.00004 3.3335Z" fill="black"/>
</g>
<defs>
<clipPath id="clip0_392_4572">
<rect width="16" height="16" fill="white"/>
</clipPath>
</defs>
</svg>
