<svg width="16" height="17" viewBox="0 0 16 17" fill="none" xmlns="http://www.w3.org/2000/svg">
<path d="M11.7238 9.5525L9.72375 8.5525C9.64502 8.51327 9.55734 8.4955 9.46955 8.50099C9.38177 8.50647 9.29698 8.53502 9.22375 8.58375L8.30562 9.19625C7.88416 8.96456 7.53732 8.61772 7.30562 8.19625L7.91812 7.27812C7.96685 7.2049 7.9954 7.12011 8.00089 7.03232C8.00637 6.94453 7.98861 6.85685 7.94937 6.77812L6.94937 4.77813C6.90793 4.69442 6.84386 4.624 6.76443 4.57484C6.68501 4.52568 6.5934 4.49976 6.5 4.5C5.83696 4.5 5.20107 4.76339 4.73223 5.23223C4.26339 5.70107 4 6.33696 4 7C4.00165 8.45818 4.58165 9.85617 5.61274 10.8873C6.64383 11.9184 8.04182 12.4983 9.5 12.5C9.8283 12.5 10.1534 12.4353 10.4567 12.3097C10.76 12.1841 11.0356 11.9999 11.2678 11.7678C11.4999 11.5356 11.6841 11.26 11.8097 10.9567C11.9353 10.6534 12 10.3283 12 10C12.0001 9.90711 11.9743 9.81604 11.9255 9.737C11.8767 9.65795 11.8068 9.59407 11.7238 9.5525ZM9.5 11.5C8.30693 11.4987 7.16311 11.0241 6.31948 10.1805C5.47585 9.33689 5.00132 8.19307 5 7C4.9999 6.6532 5.11998 6.31708 5.33979 6.04884C5.5596 5.7806 5.86557 5.59681 6.20562 5.52875L6.92312 6.96625L6.3125 7.875C6.26687 7.94345 6.23883 8.02209 6.23087 8.10397C6.22292 8.18585 6.23528 8.26842 6.26687 8.34438C6.62462 9.19461 7.30101 9.87101 8.15125 10.2288C8.22743 10.2617 8.31063 10.2753 8.39334 10.2681C8.47605 10.2609 8.55567 10.2332 8.625 10.1875L9.53813 9.57875L10.9756 10.2963C10.907 10.6367 10.7224 10.9428 10.4533 11.1623C10.1842 11.3819 9.84729 11.5012 9.5 11.5ZM8 2C6.87779 1.99976 5.77464 2.29006 4.79791 2.84264C3.82118 3.39523 3.00415 4.19128 2.42636 5.15331C1.84856 6.11534 1.52968 7.21058 1.50074 8.33241C1.47181 9.45425 1.73381 10.5645 2.26125 11.555L1.55187 13.6831C1.49312 13.8593 1.48459 14.0484 1.52725 14.2292C1.56991 14.4099 1.66207 14.5753 1.79341 14.7066C1.92474 14.8379 2.09006 14.9301 2.27083 14.9728C2.4516 15.0154 2.64068 15.0069 2.81687 14.9481L4.945 14.2388C5.81673 14.7024 6.78263 14.9614 7.76939 14.996C8.75615 15.0306 9.73783 14.84 10.6399 14.4386C11.542 14.0372 12.3408 13.4355 12.9756 12.6793C13.6105 11.9231 14.0647 11.0322 14.3038 10.0742C14.543 9.11624 14.5607 8.11638 14.3557 7.15052C14.1507 6.18467 13.7284 5.27821 13.1208 4.49995C12.5132 3.72169 11.7362 3.09208 10.8489 2.65891C9.96166 2.22574 8.98737 2.00041 8 2ZM8 14C7.03311 14.0007 6.08319 13.746 5.24625 13.2619C5.18497 13.2263 5.11684 13.2042 5.04638 13.197C4.97591 13.1898 4.90471 13.1976 4.8375 13.22L2.5 14L3.27937 11.6625C3.30184 11.5953 3.30978 11.5242 3.30267 11.4537C3.29556 11.3832 3.27356 11.3151 3.23812 11.2537C2.63186 10.2056 2.38844 8.98661 2.54564 7.78598C2.70284 6.58534 3.25187 5.47014 4.10755 4.61337C4.96324 3.7566 6.07775 3.20617 7.27818 3.04745C8.47862 2.88873 9.69789 3.13061 10.7468 3.73555C11.7958 4.3405 12.6158 5.27469 13.0796 6.39322C13.5434 7.51175 13.6252 8.75208 13.3121 9.92181C12.9991 11.0915 12.3088 12.1253 11.3483 12.8626C10.3879 13.6 9.21088 13.9998 8 14Z" fill="black"/>
</svg>
